<?xml version="1.0" encoding="utf-8"?>
<!-- Generator: Adobe Illustrator 28.2.0, SVG Export Plug-In . SVG Version: 6.00 Build 0)  -->
<svg version="1.1" id="Outline" xmlns="http://www.w3.org/2000/svg" xmlns:xlink="http://www.w3.org/1999/xlink" x="0px" y="0px"
	 viewBox="0 0 64 64" enable-background="new 0 0 64 64" xml:space="preserve">
<g>
	<path fill="#572E91" d="M37,51H27c-0.55273,0-1,0.44775-1,1s0.44727,1,1,1h10c0.55273,0,1-0.44775,1-1S37.55273,51,37,51z"/>
	<path fill="#572E91" d="M37,55H27c-0.55273,0-1,0.44775-1,1s0.44727,1,1,1h10c0.55273,0,1-0.44775,1-1S37.55273,55,37,55z"/>
	<path fill="#572E91" d="M54,31.58594V17.40631c0,0,1.32292-0.46017,1.32811-0.46197
		c0.88081-0.30638,0.88379-1.58193,0.00002-1.88868l-23-8c-0.21289-0.07422-0.44336-0.07422-0.65625,0
		c0,0-22.92598,7.97425-22.99982,7.99994c-0.87781,0.30532-0.87994,1.58297-0.00115,1.88873L15,19.14795c0,0,0,10.80215,0,10.85188
		c0,0.65399,0.64687,1.1425,1.27441,0.9616c0.98737-0.2821,1.99249-0.47253,3.00305-0.59125C19.09967,31.23138,19,32.10992,19,33
		c0,3.7915,1.65039,7.38477,4.52441,9.85596C25.09766,44.21924,26,46.09424,26,48c0,0.55225,0.44727,1,1,1h3
		c0.55273,0,1-0.44775,1-1s-0.44727-1-1-1h-2.06251c-0.26366-2.12744-1.3623-4.14697-3.10546-5.6582
		C22.39648,39.24854,21,36.20801,21,33c0-0.94,0.12317-1.86523,0.35614-2.7627c0.68695-0.00531,1.37207,0.03601,2.05524,0.10455
		C23.14636,31.20105,23,32.08868,23,33c0,4.9624,4.03711,9,9,9s9-4.0376,9-9c0-0.91138-0.14636-1.79901-0.41138-2.65826
		c0.68317-0.06854,1.36823-0.10999,2.05518-0.10468C42.87689,31.13464,43,32.05994,43,33c0,3.20801-1.39648,6.24854-3.83496,8.34424
		C37.4248,42.85352,36.32617,44.87256,36.06249,47H34c-0.55273,0-1,0.44775-1,1s0.44727,1,1,1h3c0.55273,0,1-0.44775,1-1
		c0-1.90576,0.90234-3.78076,2.47266-5.1416C43.34961,40.38477,45,36.7915,45,33c0-0.89014-0.09967-1.76874-0.27747-2.63
		c1.01046,0.11876,2.0155,0.30923,3.00277,0.59135C48.35889,31.1424,49,30.65704,49,30V19.14545l3-1.04352v13.48401
		l-1.70703,1.70703C50.10547,33.48047,50,33.73486,50,34v8c0,0.55225,0.44727,1,1,1h4c0.55273,0,1-0.44775,1-1v-8
		c0-0.26514-0.10547-0.51953-0.29297-0.70703L54,31.58594z M39,33c0,3.85986-3.14062,7-7,7s-7-3.14014-7-7
		c0-0.80798,0.1366-1.59521,0.40399-2.34979c1.31287,0.27386,2.60358,0.66949,3.8421,1.21991l2.34766,1.04346
		c0.05509,0.02462,0.8125,0.17653,0.8125,0l2.34766-1.04346c1.23853-0.55042,2.52917-0.94611,3.84204-1.22003
		C38.86334,31.40472,39,32.19202,39,33z M47.62915,17.50507c-0.00891,0.00354-0.01807,0.00549-0.02686,0.00934L32,22.94141
		l-5.62207-1.95557c-0.51758-0.18213-1.09082,0.09375-1.27246,0.61572c-0.18164,0.52148,0.09375,1.0918,0.61621,1.27295
		c0,0,5.9502,2.06982,5.95021,2.06983c0.20888,0.07282,0.44769,0.0782,0.65624,0c0,0,14.67188-5.10327,14.67188-5.10327v8.87622
		c-4.36719-0.95654-8.95605-0.49854-13.05859,1.32568L32,30.90576l-1.94141-0.86279
		C25.95508,28.21973,21.36426,27.76074,17,28.71729V19.8443l4.94043,1.72015c0.52441,0.18311,1.09277-0.09326,1.27344-0.61572
		c0.18164-0.52148-0.09375-1.09131-0.61523-1.27295l-6.1936-2.15649c-0.0163-0.00726-0.03345-0.01111-0.05023-0.01752
		l-4.31183-1.50128L32,9.05859L51.95605,16L47.62915,17.50507z M54,41h-2v-6.58594l1-1l1,1V41z"/>
</g>
</svg>
